<?xml version="1.0" encoding="UTF-8" standalone="no"?>
<!DOCTYPE svg PUBLIC "-//W3C//DTD SVG 1.1//EN" "http://www.w3.org/Graphics/SVG/1.1/DTD/svg11.dtd">
<svg width="100%" height="100%" viewBox="0 0 32 29" version="1.1" xmlns="http://www.w3.org/2000/svg" xmlns:xlink="http://www.w3.org/1999/xlink" xml:space="preserve" xmlns:serif="http://www.serif.com/" style="fill-rule:evenodd;clip-rule:evenodd;stroke-linejoin:round;stroke-miterlimit:2;">
    <g transform="matrix(1,0,0,1,-4.25,-5.91666)">
        <path d="M9.768,5.917L30.232,5.917C31.045,5.917 31.701,5.917 32.231,5.96C32.778,6.005 33.258,6.099 33.703,6.325C34.408,6.685 34.982,7.259 35.341,7.964C35.568,8.408 35.662,8.889 35.707,9.435C35.75,9.966 35.75,10.622 35.75,11.435L35.75,33.333C35.75,33.593 35.615,33.835 35.394,33.971C35.173,34.108 34.897,34.12 34.665,34.004L29.349,31.347C28.827,31.086 28.629,30.988 28.425,30.92C28.235,30.856 28.039,30.809 27.84,30.781C27.627,30.752 27.406,30.75 26.823,30.75L9.768,30.75C8.955,30.75 8.299,30.75 7.769,30.707C7.222,30.662 6.742,30.568 6.298,30.341C5.592,29.982 5.018,29.408 4.659,28.703C4.432,28.258 4.338,27.778 4.293,27.232C4.25,26.701 4.25,26.045 4.25,25.232L4.25,11.435C4.25,10.622 4.25,9.966 4.293,9.435C4.338,8.889 4.432,8.408 4.659,7.964C5.018,7.259 5.592,6.685 6.298,6.325C6.742,6.099 7.222,6.005 7.769,5.96C8.299,5.917 8.955,5.917 9.768,5.917ZM7.891,7.455C7.437,7.492 7.176,7.561 6.979,7.662C6.555,7.878 6.211,8.222 5.995,8.645C5.895,8.843 5.825,9.103 5.788,9.557C5.751,10.02 5.75,10.614 5.75,11.467L5.75,25.2C5.75,26.052 5.751,26.647 5.788,27.109C5.825,27.563 5.895,27.824 5.995,28.022C6.211,28.445 6.555,28.789 6.979,29.005C7.176,29.105 7.437,29.174 7.891,29.212C8.353,29.249 8.948,29.25 9.8,29.25L26.876,29.25C27.389,29.25 27.719,29.25 28.048,29.296C28.339,29.337 28.625,29.404 28.904,29.498C29.218,29.604 29.514,29.752 29.973,29.981L30.02,30.005L34.25,32.12L34.25,11.467C34.25,10.614 34.249,10.02 34.212,9.557C34.175,9.103 34.105,8.843 34.005,8.645C33.789,8.222 33.445,7.878 33.022,7.662C32.824,7.561 32.563,7.492 32.109,7.455C31.647,7.417 31.052,7.417 30.2,7.417L9.8,7.417C8.948,7.417 8.353,7.417 7.891,7.455ZM10.917,13.333C10.917,12.919 11.253,12.583 11.667,12.583L25,12.583C25.414,12.583 25.75,12.919 25.75,13.333C25.75,13.748 25.414,14.083 25,14.083L11.667,14.083C11.253,14.083 10.917,13.748 10.917,13.333ZM11.667,19.25C11.253,19.25 10.917,19.586 10.917,20C10.917,20.414 11.253,20.75 11.667,20.75L18.333,20.75C18.748,20.75 19.083,20.414 19.083,20C19.083,19.586 18.748,19.25 18.333,19.25L11.667,19.25Z" style="fill:white;"/>
    </g>
</svg>
