<?xml version="1.0" encoding="UTF-8" standalone="no"?>
<!DOCTYPE svg PUBLIC "-//W3C//DTD SVG 1.1//EN" "http://www.w3.org/Graphics/SVG/1.1/DTD/svg11.dtd">
<svg width="100%" height="100%" viewBox="0 0 32 32" version="1.1" xmlns="http://www.w3.org/2000/svg" xmlns:xlink="http://www.w3.org/1999/xlink" xml:space="preserve" xmlns:serif="http://www.serif.com/" style="fill-rule:evenodd;clip-rule:evenodd;stroke-linejoin:round;stroke-miterlimit:2;">
    <g transform="matrix(1,0,0,1,-4.25,-4.25)">
        <path d="M5.75,20C5.75,12.13 12.13,5.75 20,5.75C27.87,5.75 34.25,12.13 34.25,20C34.25,27.87 27.87,34.25 20,34.25C12.13,34.25 5.75,27.87 5.75,20ZM20,4.25C11.302,4.25 4.25,11.302 4.25,20C4.25,28.699 11.302,35.75 20,35.75C28.699,35.75 35.75,28.699 35.75,20C35.75,11.302 28.699,4.25 20,4.25ZM20.75,13.333C20.75,12.919 20.414,12.583 20,12.583C19.586,12.583 19.25,12.919 19.25,13.333L19.25,19.25L13.333,19.25C12.919,19.25 12.583,19.586 12.583,20C12.583,20.414 12.919,20.75 13.333,20.75L19.25,20.75L19.25,26.667C19.25,27.081 19.586,27.417 20,27.417C20.414,27.417 20.75,27.081 20.75,26.667L20.75,20.75L26.667,20.75C27.081,20.75 27.417,20.414 27.417,20C27.417,19.586 27.081,19.25 26.667,19.25L20.75,19.25L20.75,13.333Z" style="fill:white;"/>
    </g>
</svg>
