<?xml version="1.0" encoding="UTF-8" standalone="no"?>
<!DOCTYPE svg PUBLIC "-//W3C//DTD SVG 1.1//EN" "http://www.w3.org/Graphics/SVG/1.1/DTD/svg11.dtd">
<svg width="100%" height="100%" viewBox="0 0 35 35" version="1.1" xmlns="http://www.w3.org/2000/svg" xmlns:xlink="http://www.w3.org/1999/xlink" xml:space="preserve" xmlns:serif="http://www.serif.com/" style="fill-rule:evenodd;clip-rule:evenodd;stroke-linejoin:round;stroke-miterlimit:2;">
    <g transform="matrix(1,0,0,1,-2.58333,-2.58334)">
        <path d="M15.275,2.583L24.725,2.583C27.504,2.583 29.667,2.583 31.35,2.81C33.067,3.041 34.398,3.519 35.44,4.56C36.481,5.602 36.959,6.933 37.19,8.65C37.417,10.334 37.417,12.496 37.417,15.275L37.417,24.725C37.417,27.504 37.417,29.667 37.19,31.35C36.959,33.067 36.481,34.398 35.44,35.44C34.398,36.481 33.067,36.96 31.35,37.19C29.667,37.417 27.504,37.417 24.725,37.417L15.275,37.417C12.496,37.417 10.334,37.417 8.65,37.19C6.933,36.96 5.602,36.481 4.56,35.44C3.519,34.398 3.041,33.067 2.81,31.35C2.583,29.667 2.583,27.504 2.583,24.725L2.583,15.275C2.583,12.496 2.583,10.334 2.81,8.65C3.041,6.933 3.519,5.602 4.56,4.56C5.602,3.519 6.933,3.041 8.65,2.81C10.334,2.583 12.496,2.583 15.275,2.583ZM8.85,4.296C7.299,4.505 6.337,4.905 5.621,5.621C4.905,6.337 4.505,7.299 4.296,8.85C4.085,10.422 4.083,12.484 4.083,15.333L4.083,24.667C4.083,27.516 4.085,29.578 4.296,31.15C4.505,32.701 4.905,33.663 5.621,34.379C6.337,35.095 7.299,35.495 8.85,35.704C10.422,35.915 12.484,35.917 15.333,35.917L24.667,35.917C27.516,35.917 29.578,35.915 31.15,35.704C32.701,35.495 33.663,35.095 34.379,34.379C35.095,33.663 35.495,32.701 35.704,31.15C35.915,29.578 35.917,27.516 35.917,24.667L35.917,15.333C35.917,12.484 35.915,10.422 35.704,8.85C35.495,7.299 35.095,6.337 34.379,5.621C33.663,4.905 32.701,4.505 31.15,4.296C29.578,4.085 27.516,4.083 24.667,4.083L15.333,4.083C12.484,4.083 10.422,4.085 8.85,4.296ZM17.735,20.917L22.265,20.917C22.637,20.917 22.874,20.917 23.081,20.935C25.377,21.136 27.198,22.956 27.399,25.253C27.417,25.46 27.417,25.697 27.417,26.069L27.417,26.144C27.417,26.318 27.417,26.453 27.406,26.573C27.29,27.903 26.236,28.957 24.906,29.073C24.786,29.083 24.651,29.083 24.477,29.083L15.523,29.083C15.349,29.083 15.214,29.083 15.094,29.073C13.764,28.957 12.71,27.903 12.594,26.573C12.583,26.453 12.583,26.318 12.583,26.144L12.583,26.069C12.583,25.697 12.583,25.46 12.601,25.253C12.802,22.956 14.623,21.136 16.919,20.935C17.126,20.917 17.363,20.917 17.735,20.917ZM17.778,22.417C17.349,22.417 17.183,22.417 17.05,22.429C15.479,22.567 14.233,23.812 14.096,25.383C14.084,25.517 14.083,25.683 14.083,26.111C14.083,26.333 14.084,26.396 14.088,26.442C14.141,27.047 14.62,27.526 15.224,27.579C15.271,27.583 15.333,27.583 15.556,27.583L24.444,27.583C24.667,27.583 24.73,27.583 24.776,27.579C25.38,27.526 25.859,27.047 25.912,26.442C25.916,26.396 25.917,26.333 25.917,26.111C25.917,25.683 25.916,25.517 25.904,25.383C25.767,23.812 24.521,22.567 22.95,22.429C22.817,22.417 22.651,22.417 22.222,22.417L17.778,22.417ZM17.417,13.333C17.417,11.907 18.573,10.75 20,10.75C21.427,10.75 22.583,11.907 22.583,13.333C22.583,14.76 21.427,15.917 20,15.917C18.573,15.917 17.417,14.76 17.417,13.333ZM20,9.25C17.745,9.25 15.917,11.078 15.917,13.333C15.917,15.589 17.745,17.417 20,17.417C22.255,17.417 24.083,15.589 24.083,13.333C24.083,11.078 22.255,9.25 20,9.25Z" style="fill:white;"/>
    </g>
</svg>
