<?xml version="1.0" encoding="UTF-8" standalone="no"?>
<!DOCTYPE svg PUBLIC "-//W3C//DTD SVG 1.1//EN" "http://www.w3.org/Graphics/SVG/1.1/DTD/svg11.dtd">
<svg width="100%" height="100%" viewBox="0 0 32 32" version="1.1" xmlns="http://www.w3.org/2000/svg" xmlns:xlink="http://www.w3.org/1999/xlink" xml:space="preserve" xmlns:serif="http://www.serif.com/" style="fill-rule:evenodd;clip-rule:evenodd;stroke-linejoin:round;stroke-miterlimit:2;">
    <g transform="matrix(1,0,0,1,-4.24982,-4.25)">
        <path d="M19.695,4.315C19.889,4.228 20.111,4.228 20.305,4.315L35.305,10.981C35.576,11.102 35.75,11.37 35.75,11.667C35.75,11.963 35.576,12.232 35.305,12.352L20.305,19.019C20.111,19.105 19.889,19.105 19.695,19.019L4.695,12.352C4.425,12.232 4.25,11.963 4.25,11.667C4.25,11.37 4.425,11.102 4.695,10.981L19.695,4.315ZM6.847,11.667L20,17.513L33.153,11.667L20,5.821L6.847,11.667ZM4.315,19.695C4.483,19.317 4.926,19.146 5.305,19.315L20,25.846L34.695,19.315C35.074,19.146 35.517,19.317 35.685,19.695C35.854,20.074 35.683,20.517 35.305,20.685L20.305,27.352C20.111,27.438 19.889,27.438 19.695,27.352L4.695,20.685C4.317,20.517 4.146,20.074 4.315,19.695ZM5.305,27.648C4.926,27.48 4.483,27.65 4.315,28.029C4.146,28.407 4.317,28.851 4.695,29.019L19.695,35.685C19.889,35.772 20.111,35.772 20.305,35.685L35.305,29.019C35.683,28.851 35.854,28.407 35.685,28.029C35.517,27.65 35.074,27.48 34.695,27.648L20,34.179L5.305,27.648Z" style="fill:white;"/>
    </g>
</svg>
